<svg width="260" height="260" fill="none" xmlns="http://www.w3.org/2000/svg"><path d="M247 0H65c-3.448 0-6.754 1.37-9.193 3.807A13.006 13.006 0 0 0 52 13v117H13a13.004 13.004 0 0 0-9.193 3.807A13.004 13.004 0 0 0 0 143v104c0 3.448 1.37 6.754 3.807 9.193A13.004 13.004 0 0 0 13 260h104c3.448 0 6.754-1.369 9.193-3.807A13.002 13.002 0 0 0 130 247v-39h117c3.448 0 6.754-1.369 9.193-3.807A13.002 13.002 0 0 0 260 195V13c0-3.448-1.369-6.754-3.807-9.193A13.004 13.004 0 0 0 247 0ZM121.332 247c0 1.15-.455 2.25-1.268 3.065a4.337 4.337 0 0 1-3.065 1.267h-104A4.33 4.33 0 0 1 8.666 247V143A4.332 4.332 0 0 1 13 138.667h39v56.332c0 3.448 1.37 6.754 3.807 9.193a13.004 13.004 0 0 0 9.193 3.807h56.332l.001 39.001Zm130-52a4.34 4.34 0 0 1-1.268 3.065 4.338 4.338 0 0 1-3.065 1.268h-182A4.332 4.332 0 0 1 60.666 195V13A4.331 4.331 0 0 1 65 8.667h182c1.15 0 2.251.456 3.065 1.268A4.339 4.339 0 0 1 251.332 13v182Z" fill="#0D0D28"/><path d="M75.4 24.427V38.23a2.76 2.76 0 1 0 5.522 0v-7.14l20.133 20.133v.001a2.76 2.76 0 0 0 3.869-.034 2.76 2.76 0 0 0 .035-3.87L84.825 27.188h7.14a2.76 2.76 0 0 0 0-5.521H78.16a2.76 2.76 0 0 0-2.76 2.76ZM78.16 185.467h13.804a2.76 2.76 0 0 0 0-5.522h-7.14l20.134-20.133h.001a2.759 2.759 0 0 0-.035-3.869 2.759 2.759 0 0 0-3.869-.035l-20.133 20.134v-7.139a2.761 2.761 0 0 0-5.522 0v13.803a2.762 2.762 0 0 0 2.76 2.761ZM233.84 21.666h-13.804a2.76 2.76 0 0 0 0 5.522h7.139l-20.133 20.133h-.001a2.76 2.76 0 0 0 .035 3.87 2.76 2.76 0 0 0 3.869.034l20.133-20.134v7.14a2.76 2.76 0 0 0 5.522 0V24.427a2.76 2.76 0 0 0-2.76-2.76ZM236.6 182.706v-13.803a2.76 2.76 0 1 0-5.522 0v7.139l-20.133-20.133v-.001a2.759 2.759 0 0 0-3.869.035 2.759 2.759 0 0 0-.035 3.869l20.134 20.133h-7.139a2.76 2.76 0 0 0 0 5.522h13.804a2.761 2.761 0 0 0 2.76-2.76v-.001Z" fill="#0D0D28"/><path stroke="#000" stroke-width="9" stroke-linecap="round" d="M70.5 237.5h-30M24.5 236.5v1"/><path d="M165.483 110.059a2.146 2.146 0 0 0-.5-.038 2.15 2.15 0 0 0-.832.216 2.178 2.178 0 0 0-1.054 2.82l-.016.022 4.984 12.04a25.44 25.44 0 0 0 10.282-12.917l-12.842-2.168-.022.025Zm-19.983 1.705a2.177 2.177 0 0 0-2.085-1.691 2.208 2.208 0 0 0-.429.038l-.021-.026-12.731 2.161a25.536 25.536 0 0 0 10.25 12.825l4.933-11.921-.038-.047c.182-.422.225-.891.121-1.339Zm10.662 4.675a2.176 2.176 0 0 0-1.917-1.145 2.174 2.174 0 0 0-1.915 1.15h-.01l-6.261 11.321a25.504 25.504 0 0 0 13.917.716 26.569 26.569 0 0 0 2.509-.701l-6.276-11.341h-.047Zm19.819-26.295-9.632 8.62.005.028a2.175 2.175 0 0 0-.141 3.143c.272.284.615.489.994.594l.011.051 12.478 3.595a25.873 25.873 0 0 0-3.715-16.032Zm-17.895.965a2.175 2.175 0 0 0 3.456 1.659l.038.016 10.54-7.473a25.625 25.625 0 0 0-14.778-7.125l.732 12.918.012.005Zm-11.162 1.707a2.176 2.176 0 0 0 3.451-1.665l.053-.026.732-12.938c-.884.106-1.762.257-2.63.453a25.402 25.402 0 0 0-12.235 6.667l10.609 7.52.02-.01Zm-5.655 9.776a2.168 2.168 0 0 0 1.547-1.613 2.17 2.17 0 0 0-.693-2.125l.01-.05-9.685-8.664a25.392 25.392 0 0 0-3.605 16.077l12.416-3.583.01-.042Zm9.407 3.806 3.573 1.716 3.562-1.713.885-3.846-2.465-3.083h-3.968l-2.473 3.077.886 3.849Z" fill="#0D0D28"/><path d="m213.315 113.976-10.181-44.223a7.952 7.952 0 0 0-4.262-5.302L157.66 44.774a7.942 7.942 0 0 0-6.84 0l-41.203 19.687a7.944 7.944 0 0 0-4.263 5.302l-10.165 44.222a7.782 7.782 0 0 0-.003 3.395 7.867 7.867 0 0 0 1.52 3.219l28.52 35.46c.125.153.262.295.398.439a7.85 7.85 0 0 0 1.504 1.246 8.158 8.158 0 0 0 2.254.979 7.8 7.8 0 0 0 2.004.277h.444l45.293-.01a7.574 7.574 0 0 0 1.986-.27c.273-.072.543-.158.807-.258.207-.076.411-.16.611-.254.297-.142.586-.302.864-.479a7.776 7.776 0 0 0 1.892-1.675l.87-1.081 27.64-34.385a7.715 7.715 0 0 0 1.232-2.212c.12-.329.217-.666.293-1.007a7.763 7.763 0 0 0-.003-3.395v.002Zm-42.746 17.2c.115.34.253.673.41.996-.251.441-.32.963-.19 1.454a22.924 22.924 0 0 0 2.187 3.916c.478.629.919 1.286 1.322 1.966.099.184.229.469.323.664a2.481 2.481 0 0 1 .245 1.993 2.47 2.47 0 0 1-1.312 1.521 2.482 2.482 0 0 1-2.854-.532 2.487 2.487 0 0 1-.538-.874c-.094-.194-.225-.451-.305-.632a20.6 20.6 0 0 1-.716-2.261 23.063 23.063 0 0 0-1.692-4.147 1.948 1.948 0 0 0-1.259-.764c-.079-.136-.371-.672-.528-.949a31.92 31.92 0 0 1-22.761-.058l-.558 1.012a2.002 2.002 0 0 0-1.063.517 17.218 17.218 0 0 0-1.909 4.431 20.511 20.511 0 0 1-.712 2.261c-.079.18-.211.434-.306.626v.005l-.003.006a2.485 2.485 0 0 1-1.386 1.456 2.48 2.48 0 0 1-3.319-1.576 2.474 2.474 0 0 1 .252-1.994c.093-.195.218-.479.315-.663a20.54 20.54 0 0 1 1.323-1.971 24.025 24.025 0 0 0 2.232-4.013 2.437 2.437 0 0 0-.22-1.394l.449-1.076a32.093 32.093 0 0 1-14.223-17.758l-1.075.183a2.726 2.726 0 0 0-1.418-.499 23.051 23.051 0 0 0-4.299 1.265c-.721.324-1.46.607-2.214.848-.178.048-.435.098-.638.142-.016.005-.03.013-.047.017l-.038.003a2.471 2.471 0 0 1-2.759-.872 2.484 2.484 0 0 1-.046-2.894 2.476 2.476 0 0 1 1.71-1.04l.036-.008.021-.007c.206-.048.471-.117.659-.152a20.577 20.577 0 0 1 2.366-.191 23.06 23.06 0 0 0 4.421-.726 3.402 3.402 0 0 0 1.06-1.069l1.033-.302a31.91 31.91 0 0 1 5.033-22.25l-.791-.704a2.734 2.734 0 0 0-.496-1.424 22.953 22.953 0 0 0-3.668-2.577 20.67 20.67 0 0 1-2.044-1.195c-.15-.112-.348-.28-.511-.412l-.037-.026a2.611 2.611 0 0 1-.606-3.636 2.375 2.375 0 0 1 1.965-.87c.628.027 1.23.255 1.719.649.168.132.398.308.547.436a20.632 20.632 0 0 1 1.625 1.724 23.032 23.032 0 0 0 3.324 3.004c.451.238.977.289 1.465.143.141.104.618.445.89.632a31.727 31.727 0 0 1 16.115-9.207 32.197 32.197 0 0 1 4.459-.686l.059-1.043c.383-.34.661-.782.801-1.275a23.015 23.015 0 0 0-.275-4.473 20.838 20.838 0 0 1-.337-2.346c-.006-.179.004-.427.007-.632 0-.022-.007-.045-.007-.068a2.48 2.48 0 1 1 4.933-.003c0 .216.013.504.005.702a20.36 20.36 0 0 1-.338 2.345 23.108 23.108 0 0 0-.28 4.474c.098.5.387.943.807 1.233.008.178.038.773.059 1.101a32.324 32.324 0 0 1 20.473 9.892l.938-.67c.504.086 1.023.03 1.497-.163a23.1 23.1 0 0 0 3.324-3.008 20.41 20.41 0 0 1 1.629-1.724c.151-.13.38-.305.547-.436a2.47 2.47 0 0 1 1.889-.71 2.482 2.482 0 0 1 2.297 2.883 2.473 2.473 0 0 1-1.113 1.683c-.166.133-.384.32-.543.439a20.53 20.53 0 0 1-2.05 1.195 23.088 23.088 0 0 0-3.668 2.577 1.95 1.95 0 0 0-.463 1.397c-.137.126-.619.553-.874.784a32.051 32.051 0 0 1 5.138 22.197l.995.29a2.77 2.77 0 0 0 1.064 1.07c1.447.386 2.928.629 4.422.728.791.018 1.581.081 2.365.189.207.038.507.121.718.169a2.464 2.464 0 0 1 1.708 1.042 2.47 2.47 0 0 1-.048 2.891 2.47 2.47 0 0 1-2.757.873l-.035-.005c-.017-.004-.032-.013-.049-.016-.203-.045-.459-.089-.637-.136a20.577 20.577 0 0 1-2.212-.855 23.125 23.125 0 0 0-4.302-1.265 1.953 1.953 0 0 0-1.381.512 31.37 31.37 0 0 0-1.054-.184 32.096 32.096 0 0 1-14.217 17.885Z" fill="#0D0D28"/></svg>