<svg width="105" height="50" viewBox="0 0 105 50" fill="none" xmlns="http://www.w3.org/2000/svg">
<path d="M46.9025 27.3488C46.9025 23.2544 44.3245 19.621 40.5908 18.1987C38.8751 14.757 36.1192 11.8691 32.7665 9.98958V9.31523C32.7678 4.1782 28.5883 0 23.4525 0C18.3155 0 14.136 4.1782 14.136 9.31523V9.98958C10.7846 11.8691 8.02875 14.7558 6.31302 18.1987C2.57931 19.6198 0 23.2531 0 27.3488C0 29.7871 0.915648 32.115 2.51962 33.8955C2.20086 35.436 2.66948 37.0768 3.79213 38.2109L6.63432 41.0848C5.91425 43.0164 5.93076 45.1169 6.68893 47.0511C7.36075 48.7605 8.98123 49.8641 10.8176 49.8641C11.3739 49.8641 11.9187 49.7612 12.4381 49.5568C14.0205 48.9345 15.0453 47.4994 15.2244 45.9183C16.4309 46.9559 18.1593 47.3115 19.7417 46.6892C20.3144 46.4644 20.8224 46.1253 21.2428 45.7037C22.7515 45.8802 24.2679 45.8751 25.774 45.691C26.1728 46.0618 26.6402 46.3615 27.1634 46.566C28.7432 47.187 30.4717 46.8327 31.6781 45.7976C31.7277 46.2332 31.842 46.665 32.0223 47.079C32.496 48.1649 33.3634 49.0005 34.4657 49.4336C34.9851 49.638 35.53 49.7409 36.0862 49.7409C37.9226 49.7409 39.5431 48.636 40.2149 46.9267C40.9743 44.9938 40.9908 42.8932 40.2708 40.9616L43.1117 38.0889C44.2089 36.979 44.6826 35.3839 44.4032 33.8726C45.9932 32.0947 46.9025 29.7732 46.9025 27.3488Z" fill="white"/>
<path d="M9.78765 34.2854C13.6186 34.2854 16.7242 31.1798 16.7242 27.3488C16.7242 23.5178 13.6186 20.4122 9.78765 20.4122C5.95668 20.4122 2.85107 23.5178 2.85107 27.3488C2.85107 31.1798 5.95668 34.2854 9.78765 34.2854Z" fill="#FBC020"/>
<path d="M23.4512 42.9822C32.4437 42.9822 39.7335 35.6924 39.7335 26.6999C39.7335 17.7074 32.4437 10.4176 23.4512 10.4176C14.4588 10.4176 7.16895 17.7074 7.16895 26.6999C7.16895 35.6924 14.4588 42.9822 23.4512 42.9822Z" fill="#FBC020"/>
<path d="M9.78763 31.3112C11.9759 31.3112 13.7499 29.5372 13.7499 27.3489C13.7499 25.1606 11.9759 23.3866 9.78763 23.3866C7.5993 23.3866 5.82532 25.1606 5.82532 27.3489C5.82532 29.5372 7.5993 31.3112 9.78763 31.3112Z" fill="#261F4B"/>
<path d="M37.1161 34.2854C40.9471 34.2854 44.0527 31.1798 44.0527 27.3488C44.0527 23.5178 40.9471 20.4122 37.1161 20.4122C33.2852 20.4122 30.1796 23.5178 30.1796 27.3488C30.1796 31.1798 33.2852 34.2854 37.1161 34.2854Z" fill="#FBC020"/>
<path d="M23.4512 39.0948C30.2968 39.0948 35.8461 33.5454 35.8461 26.6998C35.8461 19.8543 30.2968 14.3049 23.4512 14.3049C16.6057 14.3049 11.0563 19.8543 11.0563 26.6998C11.0563 33.5454 16.6057 39.0948 23.4512 39.0948Z" fill="#261F4B"/>
<path d="M23.4512 36.2615C28.8098 36.2615 33.1538 31.9175 33.1538 26.5589C33.1538 21.2003 28.8098 16.8563 23.4512 16.8563C18.0926 16.8563 13.7487 21.2003 13.7487 26.5589C13.7487 31.9175 18.0926 36.2615 23.4512 36.2615Z" fill="#5EC5EB"/>
<path d="M28.7534 18.4349C29.2131 19.6325 29.4684 20.933 29.4684 22.2931C29.4684 28.2416 24.6463 33.0625 18.699 33.0625C17.7466 33.0625 16.8246 32.938 15.9457 32.7056C17.725 34.876 20.4275 36.2615 23.4525 36.2615C28.8106 36.2615 33.1551 31.9169 33.1551 26.5589C33.1539 23.158 31.4026 20.1672 28.7534 18.4349Z" fill="#2FB9D7"/>
<path d="M23.4512 22.3376C24.3925 22.3376 25.1555 21.5745 25.1555 20.6333C25.1555 19.692 24.3925 18.929 23.4512 18.929C22.51 18.929 21.7469 19.692 21.7469 20.6333C21.7469 21.5745 22.51 22.3376 23.4512 22.3376Z" fill="#A8D8DF"/>
<path d="M19.3151 24.0491C20.2018 23.3087 20.483 22.1844 19.9431 21.5378C19.4033 20.8912 18.2468 20.9672 17.3601 21.7076C16.4733 22.4479 16.1922 23.5723 16.732 24.2189C17.2719 24.8655 18.4284 24.7895 19.3151 24.0491Z" fill="#A8D8DF"/>
<path d="M37.1161 31.3112C39.3044 31.3112 41.0784 29.5372 41.0784 27.3489C41.0784 25.1606 39.3044 23.3866 37.1161 23.3866C34.9278 23.3866 33.1538 25.1606 33.1538 27.3489C33.1538 29.5372 34.9278 31.3112 37.1161 31.3112Z" fill="#261F4B"/>
<path d="M10.8176 47.0131C10.1852 47.0131 9.58829 46.6308 9.34318 46.0072C8.80598 44.6382 8.83392 43.1409 9.42192 41.7922C10.0099 40.4448 11.0881 39.4059 12.4572 38.8687C13.8249 38.3315 15.3222 38.3582 16.6709 38.9462C18.0183 39.5342 19.0572 40.6124 19.5957 41.9814C19.9157 42.7955 19.5144 43.7149 18.7003 44.035C17.8837 44.355 16.9668 43.9537 16.6468 43.1396C16.1756 41.9383 14.8142 41.3439 13.6154 41.8176C13.0337 42.0462 12.5753 42.4869 12.3251 43.0596C12.0749 43.6324 12.0635 44.2674 12.2921 44.849C12.6121 45.6631 12.2108 46.5825 11.3967 46.9026C11.205 46.9775 11.0094 47.0131 10.8176 47.0131Z" fill="#261F4B"/>
<path d="M12.3136 41.9713C11.8234 41.9713 11.3345 41.7833 10.9624 41.4074L5.81899 36.2069C5.30973 35.6913 5.13701 34.9306 5.37577 34.246L7.99318 26.7253C8.33734 25.7334 9.41809 25.2089 10.4125 25.5556C11.4031 25.8998 11.9275 26.9831 11.5821 27.9749L9.35459 34.3768L13.6649 38.7341C14.4027 39.4796 14.3964 40.6835 13.6496 41.4214C13.2801 41.7884 12.7962 41.9713 12.3136 41.9713Z" fill="#261F4B"/>
<path d="M36.0862 46.8899C35.8944 46.8899 35.6988 46.8544 35.5083 46.7794C34.6943 46.4594 34.293 45.5399 34.613 44.7259C34.8416 44.1442 34.8289 43.5093 34.58 42.9365C34.3311 42.3637 33.8726 41.9231 33.291 41.6945C32.7093 41.4659 32.0743 41.4773 31.5003 41.7275C30.9275 41.9764 30.4869 42.4349 30.2583 43.0165C29.9382 43.8306 29.0213 44.2319 28.2047 43.9118C27.3907 43.5918 26.9894 42.6724 27.3094 41.8583C27.8466 40.4893 28.8854 39.4111 30.2341 38.8231C31.5829 38.2363 33.0789 38.2084 34.4479 38.7456C35.8169 39.2828 36.8951 40.3216 37.4831 41.6703C38.0711 43.0178 38.0991 44.5151 37.5606 45.8841C37.3155 46.5077 36.7186 46.8899 36.0862 46.8899Z" fill="#261F4B"/>
<path d="M34.5902 41.8481C34.1076 41.8481 33.625 41.6652 33.2542 41.2982C32.5074 40.5603 32.5011 39.3564 33.239 38.6109L37.5492 34.2524L35.3217 27.8492C34.9763 26.8573 35.5008 25.7741 36.4913 25.4299C37.4807 25.0832 38.5665 25.609 38.9106 26.5995L41.528 34.1216C41.7668 34.8061 41.5941 35.5668 41.0848 36.0824L35.9414 41.2829C35.5693 41.6601 35.0804 41.8481 34.5902 41.8481Z" fill="#261F4B"/>
<path d="M29.9167 9.31527C29.9167 5.74411 27.0224 2.84985 23.4513 2.84985C19.8801 2.84985 16.9858 5.74411 16.9858 9.31527V13.9151H29.9154V9.31527H29.9167Z" fill="#FBC020"/>
<path d="M23.4512 12.8356C25.4691 12.8356 27.105 11.1998 27.105 9.1819C27.105 7.16402 25.4691 5.5282 23.4512 5.5282C21.4334 5.5282 19.7975 7.16402 19.7975 9.1819C19.7975 11.1998 21.4334 12.8356 23.4512 12.8356Z" fill="#261F4B"/>
<path d="M23.4513 11.0729C24.4957 11.0729 25.3423 10.2262 25.3423 9.18188C25.3423 8.13752 24.4957 7.29089 23.4513 7.29089C22.4069 7.29089 21.5603 8.13752 21.5603 9.18188C21.5603 10.2262 22.4069 11.0729 23.4513 11.0729Z" fill="#5EC5EB"/>
<path d="M20.9228 33.1526C21.7946 33.1526 22.5013 32.136 22.5013 30.8819C22.5013 29.6278 21.7946 28.6112 20.9228 28.6112C20.0509 28.6112 19.3442 29.6278 19.3442 30.8819C19.3442 32.136 20.0509 33.1526 20.9228 33.1526Z" fill="#261F4B"/>
<path d="M21.272 32.2953C21.535 32.2953 21.7482 31.969 21.7482 31.5664C21.7482 31.1638 21.535 30.8374 21.272 30.8374C21.0089 30.8374 20.7957 31.1638 20.7957 31.5664C20.7957 31.969 21.0089 32.2953 21.272 32.2953Z" fill="#E5E5F4"/>
<path d="M25.9798 33.1526C26.8516 33.1526 27.5583 32.136 27.5583 30.8819C27.5583 29.6278 26.8516 28.6112 25.9798 28.6112C25.1079 28.6112 24.4012 29.6278 24.4012 30.8819C24.4012 32.136 25.1079 33.1526 25.9798 33.1526Z" fill="#261F4B"/>
<path d="M25.6318 32.2953C25.8948 32.2953 26.1081 31.969 26.1081 31.5664C26.1081 31.1638 25.8948 30.8374 25.6318 30.8374C25.3688 30.8374 25.1556 31.1638 25.1556 31.5664C25.1556 31.969 25.3688 32.2953 25.6318 32.2953Z" fill="#E5E5F4"/>
<path d="M62.5206 21.2427C62.0508 21.2427 61.6367 21.4129 61.3231 21.7355C61.2075 21.8549 61.1135 21.9844 61.0399 22.1241C60.6919 21.8879 60.2944 21.6898 59.8537 21.5297C59.3254 21.338 58.7412 21.2415 58.1177 21.2415C57.1398 21.2415 56.2356 21.5056 55.4291 22.025C54.6316 22.5394 53.989 23.2569 53.5216 24.1573C53.0556 25.0514 52.8206 26.094 52.8206 27.2548C52.8206 28.4028 53.0568 29.4391 53.5216 30.3332C53.9903 31.2349 54.6392 31.9524 55.452 32.468C56.2699 32.9861 57.1931 33.249 58.1964 33.249C58.7577 33.249 59.2873 33.1551 59.7724 32.9684C60.2423 32.7868 60.6601 32.5607 61.0119 32.2966C61.0361 32.2788 61.0589 32.261 61.0818 32.2432C61.1478 32.355 61.2278 32.4591 61.3231 32.5556C61.6406 32.882 62.0431 33.0484 62.5206 33.0484C62.9982 33.0484 63.4007 32.882 63.7182 32.5556C64.0319 32.2318 64.1919 31.8292 64.1919 31.358V22.9292C64.1919 22.4416 64.0306 22.0339 63.7131 21.7164C63.3969 21.4027 62.9943 21.2427 62.5206 21.2427ZM59.7661 29.7503C59.4054 29.9916 58.9901 30.1097 58.4961 30.1097C58.0161 30.1097 57.6071 29.9916 57.2465 29.7503C56.8756 29.5039 56.5937 29.1737 56.3829 28.7419C56.1695 28.3063 56.0628 27.8059 56.0628 27.256C56.0628 26.6934 56.1708 26.1867 56.3842 25.7499C56.5937 25.3181 56.8756 24.9891 57.2465 24.7415C57.6084 24.5002 58.0173 24.3821 58.4961 24.3821C58.9889 24.3821 59.4054 24.5002 59.7674 24.7415C60.1369 24.9879 60.4188 25.3181 60.6297 25.7499C60.843 26.1867 60.951 26.6934 60.951 27.256C60.951 27.8047 60.843 28.305 60.6309 28.7419C60.4188 29.175 60.1369 29.5039 59.7661 29.7503Z" fill="white"/>
<path d="M71.2377 21.3748C70.8644 21.4637 70.5075 21.6047 70.176 21.7914C69.922 21.9361 69.6871 22.1076 69.4725 22.3057C69.4001 22.1723 69.3086 22.0479 69.1982 21.9336C68.8794 21.6072 68.4768 21.4408 68.0006 21.4408C67.5243 21.4408 67.1217 21.6072 66.803 21.9336C66.4893 22.2574 66.3293 22.66 66.3293 23.1312V31.3606C66.3293 31.8317 66.488 32.2343 66.803 32.5582C67.1205 32.8845 67.5231 33.0509 68.0006 33.0509C68.4768 33.0509 68.8807 32.8845 69.1982 32.5582C69.5118 32.2356 69.6706 31.8317 69.6706 31.3606V26.6388C69.6706 26.2172 69.7252 25.8527 69.8319 25.5543C69.9373 25.2584 70.0757 25.0107 70.2421 24.8177C70.4021 24.6323 70.5761 24.4951 70.7564 24.4113C71.1539 24.231 71.5285 24.2614 71.799 24.3834C72.3845 24.6475 73.1541 24.6526 73.7269 24.1624C74.0634 23.8754 74.2323 23.436 74.2323 22.8543C74.2323 22.4086 74.0317 22.0072 73.6519 21.6923C73.0347 21.1792 72.1115 21.164 71.2377 21.3748Z" fill="white"/>
<path d="M77.364 17.3579C76.8903 17.3579 76.4852 17.5217 76.1614 17.8456C75.8375 18.1694 75.6737 18.5733 75.6737 19.0482V31.3619C75.6737 31.833 75.8324 32.2369 76.1461 32.5594C76.4636 32.8858 76.8599 33.0522 77.3234 33.0522C77.7984 33.0522 78.2022 32.8884 78.5261 32.5645C78.8486 32.2407 79.0125 31.8368 79.0125 31.3631V19.0495C79.0125 18.5809 78.8588 18.1796 78.5553 17.857C78.2505 17.5306 77.8377 17.3579 77.364 17.3579Z" fill="white"/>
<path d="M89.5266 22.0137C88.6401 21.5019 87.6381 21.2428 86.5497 21.2428C85.4614 21.2428 84.4594 21.5019 83.5717 22.0137C82.6852 22.5255 81.9702 23.2392 81.447 24.1383C80.9212 25.0375 80.6545 26.0877 80.6545 27.2574C80.6545 28.427 80.9212 29.476 81.447 30.3764C81.9715 31.2756 82.6878 31.988 83.5742 32.4922C84.4594 32.9964 85.4601 33.2516 86.5497 33.2516C87.6394 33.2516 88.6388 32.9964 89.524 32.4922C90.4105 31.988 91.1254 31.2768 91.6512 30.3764C92.177 29.4773 92.4437 28.427 92.4437 27.2574C92.4437 26.0877 92.177 25.0387 91.6512 24.1383C91.1254 23.2392 90.4104 22.5242 89.5266 22.0137ZM87.8261 29.7592C87.0552 30.2291 86.0456 30.2291 85.2722 29.7592C84.8823 29.5217 84.5787 29.1992 84.3463 28.7724C84.1139 28.347 83.9958 27.8365 83.9958 27.2574C83.9958 26.663 84.1139 26.1474 84.3463 25.722C84.58 25.294 84.8823 24.9714 85.2722 24.7352C85.6582 24.5003 86.076 24.386 86.5497 24.386C87.0234 24.386 87.44 24.5003 87.8261 24.7352C88.2147 24.9714 88.5182 25.294 88.7519 25.722C88.9843 26.1474 89.1024 26.663 89.1024 27.2574C89.1024 27.8378 88.9843 28.3483 88.7519 28.7724C88.5182 29.2004 88.2147 29.523 87.8261 29.7592Z" fill="white"/>
<path d="M104.012 23.85C103.793 23.0728 103.384 22.4391 102.796 21.9654C102.2 21.4854 101.346 21.2428 100.258 21.2428C99.7523 21.2428 99.2748 21.3228 98.8405 21.4816C98.4138 21.6352 98.0239 21.8422 97.6836 22.0937C97.5413 22.1991 97.408 22.307 97.281 22.4188C97.2023 22.2423 97.0918 22.0797 96.9508 21.9349C96.632 21.6085 96.2295 21.4422 95.7532 21.4422C95.277 21.4422 94.8744 21.6085 94.5556 21.9349C94.242 22.2588 94.0819 22.6614 94.0819 23.1325V31.3619C94.0819 31.8331 94.2407 32.2357 94.5556 32.5595C94.8731 32.8859 95.2757 33.0522 95.7532 33.0522C96.2295 33.0522 96.6333 32.8859 96.9508 32.5595C97.2645 32.2369 97.4232 31.8331 97.4232 31.3619V26.2617C97.4232 25.901 97.4982 25.5874 97.6544 25.3042C97.8055 25.026 98.0214 24.8101 98.3135 24.64C98.603 24.4711 98.9751 24.386 99.4183 24.386C99.8578 24.386 100.187 24.4622 100.395 24.6146C100.606 24.767 100.747 24.9663 100.829 25.2216C100.926 25.5264 100.975 25.8769 100.975 26.263V31.3632C100.975 31.8356 101.135 32.2382 101.448 32.5608C101.764 32.8884 102.168 33.0535 102.647 33.0535C103.124 33.0535 103.527 32.8872 103.844 32.5608C104.158 32.2369 104.318 31.8343 104.318 31.3632V26.263C104.319 25.3854 104.215 24.5739 104.012 23.85Z" fill="white"/>
</svg>
