<svg version="1.1" id="Layer_1" xmlns="http://www.w3.org/2000/svg" x="0" y="0" viewBox="0 0 46.9 49.9" xml:space="preserve" width="229" height="243"><style>.st1{fill:#fbc020}.st2{fill:#261f4b}.st3{fill:#5ec5eb}.st5{fill:#a8d8df}.st6{fill:#e5e5f4}</style><path d="M46.9 27.3c0-4.1-2.6-7.7-6.3-9.2-1.7-3.4-4.5-6.3-7.8-8.2v-.6c0-5.1-4.2-9.3-9.3-9.3-5.1 0-9.3 4.2-9.3 9.3v.7c-3.4 1.9-6.1 4.8-7.8 8.2C2.6 19.6 0 23.3 0 27.3c0 2.4.9 4.8 2.5 6.5-.3 1.5.1 3.2 1.3 4.3L6.6 41c-.7 1.9-.7 4 .1 6 .7 1.7 2.3 2.8 4.1 2.8.6 0 1.1-.1 1.6-.3 1.6-.6 2.6-2.1 2.8-3.6 1.2 1 2.9 1.4 4.5.8.6-.2 1.1-.6 1.5-1 1.5.2 3 .2 4.5 0 .4.4.9.7 1.4.9 1.6.6 3.3.3 4.5-.8 0 .4.2.9.3 1.3.5 1.1 1.3 1.9 2.4 2.4.5.2 1.1.3 1.6.3 1.8 0 3.5-1.1 4.1-2.8.8-1.9.8-4 .1-6l2.8-2.9c1.1-1.1 1.6-2.7 1.3-4.2 1.8-1.8 2.7-4.1 2.7-6.6z" fill="#fff"/><path class="st1" d="M9.8 34.3c3.8 0 6.9-3.1 6.9-6.9s-3.1-6.9-6.9-6.9c-3.8 0-6.9 3.1-6.9 6.9s3.1 6.9 6.9 6.9z"/><path class="st1" d="M23.5 43c9 0 16.3-7.3 16.3-16.3s-7.3-16.3-16.3-16.3S7.2 17.7 7.2 26.7 14.5 43 23.5 43z"/><path class="st2" d="M9.8 31.3c2.2 0 4-1.8 4-4s-1.8-4-4-4-4 1.8-4 4 1.8 4 4 4z"/><path class="st1" d="M37.1 34.3c3.8 0 6.9-3.1 6.9-6.9s-3.1-6.9-6.9-6.9c-3.8 0-6.9 3.1-6.9 6.9s3.1 6.9 6.9 6.9z"/><path class="st2" d="M23.5 39.1c6.8 0 12.4-5.5 12.4-12.4 0-6.8-5.5-12.4-12.4-12.4-6.8 0-12.4 5.5-12.4 12.4 0 6.8 5.5 12.4 12.4 12.4z"/><path class="st3" d="M23.5 36.3c5.4 0 9.7-4.3 9.7-9.7s-4.3-9.7-9.7-9.7-9.7 4.3-9.7 9.7 4.3 9.7 9.7 9.7z"/><path d="M28.8 18.4c.5 1.2.7 2.5.7 3.9 0 5.9-4.8 10.8-10.8 10.8-1 0-1.9-.1-2.8-.4 1.8 2.2 4.5 3.6 7.5 3.6 5.4 0 9.7-4.3 9.7-9.7.1-3.4-1.7-6.4-4.3-8.2z" fill="#2fb9d7"/><path class="st5" d="M23.5 22.3c.9 0 1.7-.8 1.7-1.7 0-.9-.8-1.7-1.7-1.7-.9 0-1.7.8-1.7 1.7-.1 1 .7 1.7 1.7 1.7zM19.3 24c.9-.7 1.2-1.9.6-2.5-.5-.6-1.7-.6-2.6.2-.9.7-1.2 1.9-.6 2.5.6.7 1.7.6 2.6-.2z"/><path class="st2" d="M37.1 31.3c2.2 0 4-1.8 4-4s-1.8-4-4-4-4 1.8-4 4 1.8 4 4 4zM10.8 47c-.6 0-1.2-.4-1.5-1-.5-1.4-.5-2.9.1-4.2.6-1.3 1.7-2.4 3-2.9 1.4-.5 2.9-.5 4.2.1 1.3.6 2.4 1.7 2.9 3 .3.8-.1 1.7-.9 2.1-.8.3-1.7-.1-2.1-.9-.5-1.2-1.8-1.8-3-1.3-.6.2-1 .7-1.3 1.2-.3.6-.3 1.2 0 1.8.3.8-.1 1.7-.9 2.1h-.5z"/><path class="st2" d="M12.3 42c-.5 0-1-.2-1.4-.6l-5.1-5.2c-.5-.5-.7-1.3-.4-2L8 26.7c.3-1 1.4-1.5 2.4-1.2 1 .3 1.5 1.4 1.2 2.4l-2.2 6.4 4.3 4.4c.7.7.7 1.9 0 2.7-.4.4-.9.6-1.4.6zM36.1 46.9c-.2 0-.4 0-.6-.1-.8-.3-1.2-1.2-.9-2.1.2-.6.2-1.2 0-1.8-.2-.6-.7-1-1.3-1.2-.6-.2-1.2-.2-1.8 0-.6.2-1 .7-1.2 1.3-.3.8-1.2 1.2-2.1.9-.8-.3-1.2-1.2-.9-2.1.5-1.4 1.6-2.4 2.9-3 1.3-.6 2.8-.6 4.2-.1 1.4.5 2.4 1.6 3 2.9.6 1.3.6 2.8.1 4.2-.2.7-.8 1.1-1.4 1.1z"/><path class="st2" d="M34.6 41.8c-.5 0-1-.2-1.3-.5-.7-.7-.8-1.9 0-2.7l4.3-4.4-2.2-6.4c-.3-1 .2-2.1 1.2-2.4 1-.3 2.1.2 2.4 1.2l2.6 7.5c.2.7.1 1.4-.4 2l-5.1 5.2c-.5.4-1 .5-1.5.5z"/><path class="st1" d="M29.9 9.3c0-3.6-2.9-6.5-6.5-6.5s-6.5 2.9-6.5 6.5v4.6h12.9l.1-4.6z"/><path class="st2" d="M23.5 12.8c2 0 3.7-1.6 3.7-3.7 0-2-1.6-3.7-3.7-3.7-2 0-3.7 1.6-3.7 3.7s1.6 3.7 3.7 3.7z"/><path class="st3" d="M23.5 11.1c1 0 1.9-.8 1.9-1.9 0-1-.8-1.9-1.9-1.9-1 0-1.9.8-1.9 1.9 0 1 .8 1.9 1.9 1.9z"/><path class="st2" d="M20.9 33.2c.9 0 1.6-1 1.6-2.3s-.7-2.3-1.6-2.3c-.9 0-1.6 1-1.6 2.3s.8 2.3 1.6 2.3z"/><path class="st6" d="M21.3 32.3c.3 0 .5-.3.5-.7 0-.4-.2-.7-.5-.7s-.5.3-.5.7c0 .4.2.7.5.7z"/><path class="st2" d="M26 33.2c.9 0 1.6-1 1.6-2.3s-.7-2.3-1.6-2.3c-.9 0-1.6 1-1.6 2.3s.7 2.3 1.6 2.3z"/><path class="st6" d="M25.6 32.3c.3 0 .5-.3.5-.7 0-.4-.2-.7-.5-.7s-.5.3-.5.7c.1.4.3.7.5.7z"/></svg>